<svg width="42" height="42" fill="none" xmlns="http://www.w3.org/2000/svg"><circle cx="21" cy="21" r="21" fill="#FEE500"/><path d="M21.06 10.135c-6.533 0-11.802 4.215-11.802 9.333 0 3.321 2.192 6.23 5.48 7.89l-1.113 4.157a.354.354 0 0 0 .085.362.37.37 0 0 0 .244.093.354.354 0 0 0 .202-.084l4.789-3.23c.707.098 1.42.149 2.133.152 6.525 0 11.802-4.215 11.802-9.34 0-5.126-5.294-9.333-11.82-9.333Z" fill="#392020"/><path d="M13.389 17.992h-1.29a.844.844 0 0 1-.455-.118.523.523 0 0 1-.236-.345.74.74 0 0 1 0-.135.522.522 0 0 1 .202-.439.843.843 0 0 1 .506-.16h3.886a.784.784 0 0 1 .456.127.49.49 0 0 1 .236.345.652.652 0 0 1 0 .127.539.539 0 0 1-.203.447.776.776 0 0 1-.497.151h-1.248v4.435a.683.683 0 0 1-.194.514.65.65 0 0 1-.489.194.683.683 0 0 1-.438-.143.633.633 0 0 1-.228-.38.693.693 0 0 1 0-.185l-.008-4.435ZM17.066 17.124a.582.582 0 0 1 .244-.337.783.783 0 0 1 .422-.101h.32a.843.843 0 0 1 .447.11.691.691 0 0 1 .286.412l1.686 4.764c.044.124.08.25.11.379.003.053.003.107 0 .16a.565.565 0 0 1-.185.438.615.615 0 0 1-.456.186.58.58 0 0 1-.607-.388l-.354-1.037h-2.217l-.354 1.037a.573.573 0 0 1-.615.388.632.632 0 0 1-.397-.127.582.582 0 0 1-.21-.354.763.763 0 0 1 0-.143.74.74 0 0 1 0-.253c0-.093.059-.194.092-.287l1.788-4.847Zm.843 1.104-.801 2.53H18.7l-.792-2.53ZM20.774 17.394a.717.717 0 0 1 .186-.514.658.658 0 0 1 .497-.194.716.716 0 0 1 .438.143.64.64 0 0 1 .22.388.633.633 0 0 1 0 .177v4.434h2.318a.844.844 0 0 1 .455.127.516.516 0 0 1 .236.345v.127a.523.523 0 0 1-.202.438.843.843 0 0 1-.506.16h-2.85a.842.842 0 0 1-.514-.134.649.649 0 0 1-.253-.422 2.084 2.084 0 0 1 0-.278l-.025-4.797ZM25.276 17.394a.75.75 0 0 1 .186-.514.742.742 0 0 1 .935-.051c.12.098.2.235.228.388.004.059.004.118 0 .177v2.065l2.133-2.461a2.85 2.85 0 0 1 .261-.236.539.539 0 0 1 .287-.076c.147-.001.291.043.413.126a.515.515 0 0 1 .22.337.127.127 0 0 1 0 .051.143.143 0 0 0 0 .059.515.515 0 0 1-.068.253 1.24 1.24 0 0 1-.16.227l-1.4 1.535 1.686 2.613v.084c.088.121.156.255.202.397v.042a.606.606 0 0 1-.21.523.792.792 0 0 1-.49.16.666.666 0 0 1-.336-.076.843.843 0 0 1-.27-.295l-1.568-2.53-.75.785v1.408a.75.75 0 0 1-.186.514.685.685 0 0 1-.506.194.674.674 0 0 1-.43-.143.632.632 0 0 1-.227-.38.694.694 0 0 1 0-.185l.05-4.991Z" fill="#FEE500"/></svg>