<svg width="42" height="42" fill="none" xmlns="http://www.w3.org/2000/svg"><path d="M42 20.998a21 21 0 1 1-42 .004 21 21 0 0 1 42-.004Z" fill="red"/><path fill-rule="evenodd" clip-rule="evenodd" d="M29.422 14.617a2.59 2.59 0 0 1 1.831 1.825c.433 1.61.433 4.97.433 4.97s0 3.36-.433 4.97a2.59 2.59 0 0 1-1.831 1.826c-1.616.432-8.095.432-8.095.432s-6.478 0-8.094-.432a2.59 2.59 0 0 1-1.832-1.825c-.433-1.61-.433-4.97-.433-4.97s0-3.36.433-4.97a2.59 2.59 0 0 1 1.832-1.826c1.616-.432 8.094-.432 8.094-.432s6.48 0 8.095.432Zm-5.445 7.148-5.3 3.131v-6.263l5.3 3.132Z" fill="#fff"/></svg>