<svg width="42" height="42" fill="none" xmlns="http://www.w3.org/2000/svg"><path d="M42 20.998a21 21 0 1 1-42 .004 21 21 0 0 1 42-.004Z" fill="#03CF5D"/><path d="M14.209 19.123a.817.817 0 1 0 0 1.633.817.817 0 0 0 0-1.633ZM22.276 20.798a.88.88 0 1 0 0-1.76.88.88 0 0 0 0 1.76Z" fill="#fff"/><path d="M29.579 11H12.206a3.174 3.174 0 0 0-3.174 3.173v10.31a3.174 3.174 0 0 0 3.174 3.173h6.136l2.079 4.917s.144.427.492.427c.347 0 .491-.427.491-.427l2.087-4.917h6.076a3.174 3.174 0 0 0 3.175-3.173V14.18A3.174 3.174 0 0 0 29.579 11Zm-13.094 9.115c-.01 1.883-1.958 1.938-1.958 1.938a1.63 1.63 0 0 1-1.18-.5v.34h-1.419v-5.846c.088.014 1.418 0 1.418 0v2.238c.335-.569 1.3-.56 1.3-.56 2.102.193 1.84 2.39 1.84 2.39Zm2.498-2.22v4.008h-1.386v-3.961c0-.54-.669-.69-.669-.69v-1.399c2.215.09 2.055 2.049 2.055 2.049v-.007Zm3.293 4.158c-1.28 0-2.328-.96-2.328-2.145 0-1.184 1.042-2.144 2.328-2.144 1.285 0 2.33.96 2.33 2.144 0 1.185-1.043 2.154-2.33 2.154v-.01Zm7.611 0s.02 2.035-2.048 2.035h-.63V22.77h.379s.87.08.86-1.258c0 0-.17.542-1.39.542 0 0-1.728-.125-1.728-1.812v-.64s.04-1.749 1.938-1.888a1.417 1.417 0 0 1 1.21.539v-.42h1.41v4.22Z" fill="#fff"/><path d="M27.677 20.777a.859.859 0 1 0 0-1.718.859.859 0 0 0 0 1.718Z" fill="#fff"/></svg>