<svg width="42" height="42" fill="none" xmlns="http://www.w3.org/2000/svg"><path d="M42 20.998a21 21 0 1 1-42 .004 21 21 0 0 1 42-.004Z" fill="#fff"/><path d="M42 20.998a21 21 0 1 1-42 .004 21 21 0 0 1 42-.004Z" fill="#03CF5D"/><g clip-path="url(#a)"><path d="M20.197 28.373a2.608 2.608 0 0 1-1.604 2.405 2.595 2.595 0 0 1-3.395-1.409 2.606 2.606 0 0 1-.198-.996V14.64a2.606 2.606 0 0 1 1.604-2.404A2.594 2.594 0 0 1 20 13.645c.13.315.198.654.198.995v13.733Z" fill="url(#b)"/><path d="M20.197 28.373a2.608 2.608 0 0 1-1.604 2.405 2.595 2.595 0 0 1-3.395-1.409 2.606 2.606 0 0 1-.198-.996V14.64a2.606 2.606 0 0 1 1.604-2.404A2.594 2.594 0 0 1 20 13.645c.13.315.198.654.198.995v13.733Z" fill="url(#c)"/><path d="M19.036 30.6a2.596 2.596 0 0 1-3.583-.819 2.606 2.606 0 0 1 .818-3.588l10.812-6.803a2.596 2.596 0 0 1 3.944 1.768 2.607 2.607 0 0 1-1.179 2.64L19.036 30.6Z" fill="url(#d)"/><path d="M19.036 12.4a2.596 2.596 0 0 0-3.945 1.768 2.605 2.605 0 0 0 1.18 2.64l10.806 6.8a2.596 2.596 0 0 0 3.945-1.767 2.607 2.607 0 0 0-1.18-2.64L19.037 12.4Z" fill="#fff"/></g><defs><linearGradient id="b" x1="17.599" y1="12.038" x2="17.599" y2="30.976" gradientUnits="userSpaceOnUse"><stop stop-color="#fff"/><stop offset="1" stop-color="#999"/></linearGradient><linearGradient id="c" x1="17.599" y1="12.038" x2="17.599" y2="30.976" gradientUnits="userSpaceOnUse"><stop stop-color="#fff"/><stop offset="1" stop-color="#E8E8E8"/></linearGradient><linearGradient id="d" x1="23.059" y1="18.991" x2="23.059" y2="30.999" gradientUnits="userSpaceOnUse"><stop stop-color="#fff"/><stop offset="1" stop-color="#E8E8E8"/></linearGradient><clipPath id="a"><path fill="#fff" transform="translate(15 12)" d="M0 0h16.066v19H0z"/></clipPath></defs></svg>